<svg width="100" height="31" viewBox="0 0 100 31" fill="none" xmlns="http://www.w3.org/2000/svg">
<path d="M0 31H54.4557H100V0H0L11.723 15.67L0 31Z" fill="#E3000B"/>
<path d="M21.8444 22.5593H28.3885V20.1209H26.1272H24.4479V10.8283H26.1272H28.3885V8.13977H21.8444V22.5593Z" fill="white"/>
<path d="M30.4523 10.9103H32.315V22.5593H34.9185V10.9103H36.7777V8.13977H30.4523V10.9103Z" fill="white"/>
<path d="M38.912 22.446H41.5191V16.6821H44.7682V14.443H41.5191V10.8283H45.5161V8.13981L38.912 8.02649V22.446Z" fill="white"/>
<path d="M64.4853 9.82791H66.4397V22.5593H68.0025V9.82791H69.9534V8.13977H64.4853V9.82791Z" fill="white"/>
<path d="M73.2873 8.13977H71.7244V22.5593H73.2873V8.13977Z" fill="white"/>
<path d="M79.08 13.4152L77.2208 8.13977H75.6791V22.5593H77.2208V12.3445L79.08 17.5339L80.9391 12.3445V22.5593H82.4843V8.13977H80.9391L79.08 13.4152Z" fill="white"/>
<path d="M86.3508 20.8711V16.1741H88.9543V14.4859H86.3508V9.82791H90.623L91.0322 8.13977H84.788V22.5593H90.9652L90.556 20.8711H86.3508Z" fill="white"/>
<path d="M47.8163 8.13977V22.5593H61.8218V8.13977H47.8163ZM59.9132 20.5937H49.7284V10.1054H59.9132V20.5937Z" fill="white"/>
<path d="M54.2969 15.3143L52.1414 17.6981L53.5631 19.0931L56.8828 15.4199L51.2101 9.13623H48.7194L54.2969 15.3143Z" fill="white"/>
</svg>
